<svg id="Group_21" data-name="Group 21" xmlns="http://www.w3.org/2000/svg" xmlns:xlink="http://www.w3.org/1999/xlink" width="16.553" height="15.977" viewBox="0 0 16.553 15.977">
  <defs>
    <clipPath id="clip-path">
      <rect id="Rectangle_26" data-name="Rectangle 26" width="16.553" height="15.977" fill="none"/>
    </clipPath>
  </defs>
  <g id="Group_20" data-name="Group 20" transform="translate(0 0)" clip-path="url(#clip-path)">
    <path id="Path_38" data-name="Path 38" d="M9.22,2.586a11.579,11.579,0,0,1-.59,3.147A1.042,1.042,0,0,0,8.777,6.9a3.34,3.34,0,0,1,.3.461c.8,1.294,1.69,2.277,3.5,1.84a4.44,4.44,0,0,1,3,.333,1.385,1.385,0,0,1,.952,1.533A1.329,1.329,0,0,1,15.143,12.2a6,6,0,0,1-4.2-1.44A1.06,1.06,0,0,0,9.8,10.547a5.122,5.122,0,0,1-1,.215,4.3,4.3,0,0,0-3.534,2.321A6,6,0,0,1,2.91,15.566a2.123,2.123,0,0,1-2.091.227A1.308,1.308,0,0,1,.45,13.577,8.119,8.119,0,0,1,3.7,11.438a2.549,2.549,0,0,0,1.42-1.349c.614-1.3,1.1-2.652,1.612-3.991A1.1,1.1,0,0,0,6.666,5.2a8.365,8.365,0,0,1-.7-3.12C5.951.792,6.488.029,7.39,0,8.414-.031,9.132.766,9.218,2.036c.012.183,0,.367,0,.55m2.173,7.472A5.653,5.653,0,0,0,13.5,11.213a1.467,1.467,0,0,0,1.061.038.644.644,0,0,0,.428-.591.511.511,0,0,0-.4-.516,8.3,8.3,0,0,0-3.2-.086M3.962,12.2c-.173.092-.344.186-.518.274a6.719,6.719,0,0,0-2.235,1.557c-.2.24-.373.555-.107.851s.54.051.765-.1A6.885,6.885,0,0,0,3.962,12.2M7.449,4.623a9.779,9.779,0,0,0,.5-3.176C7.94,1.182,7.876.833,7.484.829c-.37,0-.447.29-.513.584a5.989,5.989,0,0,0,.477,3.21M9.463,9.491,8.083,7.7,7.036,10.161l2.427-.67" transform="translate(0 0)" fill="#f8efed"/>
  </g>
</svg>
