<svg id="Group_42" data-name="Group 42" xmlns="http://www.w3.org/2000/svg" xmlns:xlink="http://www.w3.org/1999/xlink" width="13.672" height="13.282" viewBox="0 0 13.672 13.282">
  <defs>
    <clipPath id="clip-path">
      <rect id="Rectangle_40" data-name="Rectangle 40" width="13.672" height="13.282" fill="none"/>
    </clipPath>
  </defs>
  <g id="Group_41" data-name="Group 41" clip-path="url(#clip-path)">
    <path id="Path_41" data-name="Path 41" d="M.83,1.385a1.316,1.316,0,0,0-.021.175c.032.9.066,1.791.1,2.687.008.222-.032.261-.251.265-.1,0-.192.007-.288.008-.166,0-.206-.033-.213-.2Q.114,3.289.076,2.255T0,.215C-.006.054.048,0,.21,0Q2.236.073,4.262.148c.241.009.276.056.259.3-.007.091-.012.182-.012.273a.168.168,0,0,1-.2.188C4.1.9,3.9.894,3.692.886L1.609.807c-.06,0-.12,0-.18,0L1.408.845a1.369,1.369,0,0,0,.1.134Q3.179,2.647,4.847,4.315c.165.165.165.207,0,.375-.075.075-.148.15-.224.223a.161.161,0,0,1-.243,0C4.339,4.88,4.3,4.842,4.265,4.8L.98,1.52C.941,1.481.9,1.445.83,1.385" transform="translate(0 -0.001)" fill="#fff"/>
    <path id="Path_42" data-name="Path 42" d="M306,.821a1.634,1.634,0,0,0-.164-.01l-2.643.1c-.233.009-.27-.024-.279-.251,0-.091-.011-.182-.015-.273-.007-.164.037-.221.2-.231.292-.017.584-.026.876-.037l3.2-.117c.21-.008.249.039.24.25-.035.915-.066,1.83-.1,2.744q-.024.661-.051,1.322c-.007.172-.047.206-.222.2l-.316-.008c-.17-.005-.22-.055-.214-.23.023-.647.048-1.293.073-1.94.01-.273.021-.546.029-.819a.709.709,0,0,0-.027-.134c-.067.059-.119.1-.165.144l-3.294,3.3c-.188.188-.226.188-.417,0l-.153-.152c-.147-.148-.148-.2,0-.344l1.871-1.871L305.917.978c.036-.036.065-.077.1-.116L306,.821" transform="translate(-293.751 -0.005)" fill="#fff"/>
    <path id="Path_43" data-name="Path 43" d="M306.6,292.553a1.939,1.939,0,0,0,.016-.195c-.032-.891-.065-1.782-.1-2.673-.008-.222.032-.26.251-.265.1,0,.192-.007.287-.008.166,0,.206.033.213.2q.042,1.07.08,2.141c.024.651.047,1.3.073,1.954.007.179-.042.234-.223.227q-2.012-.072-4.023-.146c-.256-.009-.29-.052-.273-.3.006-.091.012-.182.012-.273a.169.169,0,0,1,.2-.187q.417.014.833.031l1.868.074c.06,0,.119,0,.179,0l.021-.038a1.4,1.4,0,0,0-.105-.134q-1.667-1.669-3.335-3.336c-.165-.165-.164-.207,0-.375l.214-.214a.168.168,0,0,1,.264,0c.024.023.048.047.071.071l3.294,3.3c.046.046.1.087.175.157" transform="translate(-293.753 -280.651)" fill="#fff"/>
    <path id="Path_44" data-name="Path 44" d="M.848,292.459c.077-.07.127-.112.174-.158l3.294-3.3c.178-.178.22-.178.4,0,.061.061.123.121.183.183.123.126.123.186,0,.314l-1.973,1.973q-.7.7-1.392,1.394c-.038.038-.068.084-.123.155.09.007.144.017.2.015l2.643-.1c.237-.009.274.024.283.262,0,.1.011.191.016.287a.172.172,0,0,1-.183.205c-.3.012-.594.026-.891.037l-3.218.117c-.188.007-.24-.046-.233-.218q.054-1.444.105-2.888.023-.611.049-1.221c.007-.157.047-.193.2-.192.11,0,.22.005.331.008.172.005.224.054.218.227-.022.642-.047,1.284-.071,1.925-.01.278-.022.555-.031.833a.857.857,0,0,0,.026.143" transform="translate(-0.017 -280.56)" fill="#fff"/>
  </g>
</svg>
