<svg id="Group_10" data-name="Group 10" xmlns="http://www.w3.org/2000/svg" xmlns:xlink="http://www.w3.org/1999/xlink" width="15.472" height="16.701" viewBox="0 0 15.472 16.701">
  <defs>
    <clipPath id="clip-path">
      <rect id="Rectangle_8" data-name="Rectangle 8" width="15.472" height="16.701" fill="none"/>
    </clipPath>
  </defs>
  <g id="Group_9" data-name="Group 9" clip-path="url(#clip-path)">
    <path id="Path_20" data-name="Path 20" d="M1.936,14.771h.136q1.833,0,3.667,0A.967.967,0,0,1,6.6,15.2a.908.908,0,0,1,.053.989A.918.918,0,0,1,5.8,16.7c-1.251.005-2.5,0-3.754,0H.994A.971.971,0,0,1,0,15.728c0-.019,0-.039,0-.058Q0,8.351,0,1.031A.949.949,0,0,1,.562.1.981.981,0,0,1,.962,0Q3.386,0,5.81,0a.962.962,0,0,1,.078,1.921c-.064.006-.129.006-.193.006H2.067c-.131,0-.131,0-.131.13q0,6.289,0,12.578Z" transform="translate(0 0)" fill="#fff"/>
    <path id="Path_21" data-name="Path 21" d="M273.406,237.053h-.123q-2.82,0-5.64,0a.962.962,0,1,1-.1-1.922c.251-.008.5,0,.755,0h5.114l.018-.028c-.035-.029-.072-.057-.106-.088-.4-.362-.808-.722-1.209-1.086a.959.959,0,0,1,.336-1.642.939.939,0,0,1,.962.215q.906.808,1.808,1.62l1.383,1.24a.947.947,0,0,1,.323.6.914.914,0,0,1-.3.838q-1.617,1.457-3.242,2.906a.908.908,0,0,1-1.021.157.959.959,0,0,1-.249-1.607l1.217-1.092c.031-.027.06-.056.09-.084l-.012-.024" transform="translate(-261.461 -227.74)" fill="#fff"/>
  </g>
</svg>
