<?xml version="1.0" encoding="UTF-8"?><svg id="Layer_2" xmlns="http://www.w3.org/2000/svg" viewBox="0 0 70.44 76.17"><g id="Layer_1-2"><g id="Group_74"><g id="Group_13"><path id="Path_28" d="M23.3,3.66C27.92,.97,33.24-.29,38.58,.05c2.45,.1,4.36,2.16,4.27,4.61-.1,2.45-2.16,4.36-4.61,4.27h-.21c-9.45-.61-17.28,.51-23.34,2.68,2.25-3.25,5.19-5.97,8.61-7.95" style="fill:#ed8a3d;"/><path id="Path_29" d="M14.41,41.94c-.3-.45-.58-.91-.86-1.38-5.28-9.06-4.83-20.36,1.15-28.98-18.7,6.69-20.39,23.35-.29,30.36" style="fill:#fff;"/><path id="Path_30" d="M36.97,45.12c2.45,.07,4.37,2.12,4.3,4.57-.07,2.34-1.95,4.23-4.3,4.3-4.73,.02-9.39-1.21-13.5-3.55-4.33-2.48-6.07-4.67-9.06-8.48,5.72,2,13.21,3.21,22.56,3.17" style="fill:#bd471b;"/><path id="Path_31" d="M47.13,25.84c-4.62-2.69-9.95-3.95-15.29-3.61-2.45,.12-4.34,2.2-4.23,4.65s2.2,4.34,4.65,4.23c.01,0,.03,0,.04,0h.1c9.45-.61,17.28,.51,23.33,2.68-2.25-3.25-5.19-5.96-8.61-7.94" style="fill:#00667a;"/><path id="Path_32" d="M56.03,64.14c.3-.45,.58-.91,.86-1.38,5.27-9.07,4.82-20.36-1.15-28.98,18.69,6.69,20.39,23.36,.29,30.36" style="fill:#007c98;"/><path id="Path_33" d="M33.47,67.31c-2.45-.07-4.49,1.85-4.57,4.3-.07,2.45,1.85,4.49,4.3,4.57h.27c4.73,.02,9.38-1.21,13.48-3.56,4.33-2.48,6.08-4.67,9.06-8.48-5.72,2-13.21,3.21-22.56,3.17" style="fill:#00aec8;"/></g></g></g></svg>