<?xml version="1.0" encoding="utf-8"?>
<!-- Generator: Adobe Illustrator 27.2.0, SVG Export Plug-In . SVG Version: 6.00 Build 0)  -->
<svg version="1.1" id="Layer_2_00000155115490345350062950000014969140682819431579_"
	 xmlns="http://www.w3.org/2000/svg" xmlns:xlink="http://www.w3.org/1999/xlink" x="0px" y="0px" viewBox="0 0 70.4 76.2"
	 style="enable-background:new 0 0 70.4 76.2;" xml:space="preserve">
<style type="text/css">
	.st0{fill:#ED8A3D;}
	.st1{fill:#F36D33;}
	.st2{fill:#BD471B;}
	.st3{fill:#00667A;}
	.st4{fill:#007C98;}
	.st5{fill:#00AEC8;}
</style>
<g id="Layer_1-2">
	<g id="Group_74">
		<g id="Group_13">
			<path id="Path_28" class="st0" d="M23.3,3.7c4.6-2.7,9.9-4,15.3-3.6c2.5,0.1,4.4,2.2,4.3,4.6c-0.1,2.5-2.2,4.4-4.6,4.3H38
				c-9.5-0.6-17.3,0.5-23.3,2.7C16.9,8.4,19.9,5.6,23.3,3.7"/>
			<path id="Path_29" class="st1" d="M14.4,41.9c-0.3-0.5-0.6-0.9-0.9-1.4c-5.3-9.1-4.8-20.4,1.1-29C-4,18.3-5.7,34.9,14.4,41.9"/>
			<path id="Path_30" class="st2" d="M37,45.1c2.5,0.1,4.4,2.1,4.3,4.6c-0.1,2.3-2,4.2-4.3,4.3c-4.7,0-9.4-1.2-13.5-3.5
				c-4.3-2.5-6.1-4.7-9.1-8.5C20.1,44,27.6,45.2,37,45.1"/>
			<path id="Path_31" class="st3" d="M47.1,25.8c-4.6-2.7-10-4-15.3-3.6c-2.5,0.1-4.3,2.2-4.2,4.6s2.2,4.3,4.7,4.2c0,0,0,0,0,0h0.1
				c9.5-0.6,17.3,0.5,23.3,2.7C53.5,30.5,50.5,27.8,47.1,25.8"/>
			<path id="Path_32" class="st4" d="M56,64.1c0.3-0.5,0.6-0.9,0.9-1.4c5.3-9.1,4.8-20.4-1.2-29C74.4,40.5,76.1,57.1,56,64.1"/>
			<path id="Path_33" class="st5" d="M33.5,67.3c-2.5-0.1-4.5,1.8-4.6,4.3c-0.1,2.4,1.9,4.5,4.3,4.6h0.3c4.7,0,9.4-1.2,13.5-3.6
				c4.3-2.5,6.1-4.7,9.1-8.5C50.3,66.1,42.8,67.3,33.5,67.3"/>
		</g>
	</g>
</g>
</svg>
