<svg xmlns="http://www.w3.org/2000/svg" xmlns:xlink="http://www.w3.org/1999/xlink" width="261.92" height="97.018" viewBox="0 0 261.92 97.018">
  <defs>
    <clipPath id="clip-path">
      <rect id="Rectangle_10" data-name="Rectangle 10" width="261.92" height="97.018" transform="translate(0 0)" fill="none"/>
    </clipPath>
  </defs>
  <g id="Group_74" data-name="Group 74" transform="translate(-20.54 -24.86)">
    <g id="Group_13" data-name="Group 13" transform="translate(20.54 24.86)" clip-path="url(#clip-path)">
      <path id="Path_28" data-name="Path 28" d="M38.085,16.437a26.949,26.949,0,0,1,15.282-3.608,4.441,4.441,0,1,1-.345,8.876l-.212-.012c-9.449-.6-17.283.525-23.336,2.69a26.666,26.666,0,0,1,8.611-7.946" fill="#ed8a3d"/>
      <path id="Path_29" data-name="Path 29" d="M29.2,54.719c-.3-.453-.585-.91-.862-1.383A27,27,0,0,1,29.49,24.359C10.792,31.046,9.1,47.707,29.2,54.719" fill="#fff"/>
      <path id="Path_30" data-name="Path 30" d="M51.76,57.89a4.434,4.434,0,0,1,0,8.864A26.978,26.978,0,0,1,38.26,63.2c-4.33-2.482-6.074-4.67-9.06-8.479,5.717,2,13.206,3.207,22.563,3.171" fill="#bd471b"/>
      <path id="Path_31" data-name="Path 31" d="M61.919,38.61A26.947,26.947,0,0,0,46.632,35a4.443,4.443,0,1,0,.46,8.874l.1-.006c9.449-.6,17.283.521,23.332,2.686a27.006,27.006,0,0,0-8.607-7.942" fill="#00667a"/>
      <path id="Path_32" data-name="Path 32" d="M70.819,76.912c.3-.453.585-.91.862-1.383a27.028,27.028,0,0,0-1.155-28.977c18.694,6.687,20.386,23.364.293,30.36" fill="#007c98"/>
      <path id="Path_33" data-name="Path 33" d="M48.256,80.083a4.434,4.434,0,0,0-.269,8.864h.269a26.963,26.963,0,0,0,13.482-3.556c4.334-2.482,6.078-4.671,9.064-8.479-5.721,2-13.206,3.207-22.563,3.171" fill="#00aec8"/>
      <path id="Path_34" data-name="Path 34" d="M95.606,76.852V69.9h3.043a3.3,3.3,0,0,1,.906.12,2.052,2.052,0,0,1,.678.345,1.431,1.431,0,0,1,.4.545,1.681,1.681,0,0,1,.148.726,1.47,1.47,0,0,1-.1.525,1.523,1.523,0,0,1-.665.8,1.353,1.353,0,0,1-.5.172v.088a1.78,1.78,0,0,1,.641.16,1.718,1.718,0,0,1,.5.357,1.538,1.538,0,0,1,.333.509,1.757,1.757,0,0,1,.116.629,2.089,2.089,0,0,1-.164.826,1.688,1.688,0,0,1-.481.629,2.273,2.273,0,0,1-.758.4,3.385,3.385,0,0,1-1,.14l-3.1-.02Zm1.455-4.073h1.1a1.531,1.531,0,0,0,.906-.229.77.77,0,0,0,.309-.653.8.8,0,0,0-.285-.653,1.25,1.25,0,0,0-.8-.233h-1.2l-.02,1.768Zm1.3,2.959a1.529,1.529,0,0,0,.958-.257.892.892,0,0,0,.333-.746.854.854,0,0,0-.341-.73,1.708,1.708,0,0,0-.986-.245H97.059v1.976Zm3.953-4.2h1.359v.846h.084a1.092,1.092,0,0,1,.18-.369,1.377,1.377,0,0,1,.3-.3,1.7,1.7,0,0,1,.4-.2,1.635,1.635,0,0,1,.481-.072h.3a1.061,1.061,0,0,1,.249.052V72.77l-.12-.028-.172-.032H105a1.7,1.7,0,0,0-.525.08,1.137,1.137,0,0,0-.4.241,1.042,1.042,0,0,0-.265.377,1.262,1.262,0,0,0-.1.5v2.947h-1.4V71.531Zm5.007-.742a1.153,1.153,0,0,1-.345-.056.8.8,0,0,1-.261-.144.688.688,0,0,1-.168-.225.8.8,0,0,1-.056-.285.737.737,0,0,1,.056-.289.622.622,0,0,1,.168-.225.712.712,0,0,1,.261-.144,1.123,1.123,0,0,1,.345-.052,1.094,1.094,0,0,1,.341.052.71.71,0,0,1,.257.144.585.585,0,0,1,.172.225.714.714,0,0,1,0,.573.633.633,0,0,1-.172.225.814.814,0,0,1-.257.144,1.069,1.069,0,0,1-.341.056Zm-.706.742h1.4v5.316h-1.4Zm2.83,0H110.8v.85h.084a1.5,1.5,0,0,1,.581-.71,1.786,1.786,0,0,1,.99-.257,1.721,1.721,0,0,1,1.355.521,2.134,2.134,0,0,1,.465,1.475v3.436h-1.4V73.766a1.251,1.251,0,0,0-.241-.838.9.9,0,0,0-.738-.281,1.168,1.168,0,0,0-.441.08.954.954,0,0,0-.329.233,1.08,1.08,0,0,0-.208.369,1.46,1.46,0,0,0-.072.473v3.067h-1.4V71.537Zm8.527,7.328a4.1,4.1,0,0,1-.962-.108,2.57,2.57,0,0,1-.75-.317,1.59,1.59,0,0,1-.5-.493,1.409,1.409,0,0,1-.221-.637h1.387a.585.585,0,0,0,.337.4,1.554,1.554,0,0,0,.738.148,1.379,1.379,0,0,0,.882-.249.847.847,0,0,0,.309-.7v-.982h-.084a1.536,1.536,0,0,1-.629.641,2.056,2.056,0,0,1-.974.216,2.151,2.151,0,0,1-.894-.188,1.924,1.924,0,0,1-.678-.525,2.432,2.432,0,0,1-.429-.83,3.835,3.835,0,0,1-.148-1.086,4.038,4.038,0,0,1,.148-1.115,2.526,2.526,0,0,1,.433-.85,1.937,1.937,0,0,1,.686-.545,2.176,2.176,0,0,1,.914-.188,1.917,1.917,0,0,1,.97.253,1.491,1.491,0,0,1,.373.293,1.691,1.691,0,0,1,.269.4h.088v-.85H120.6v5.3a1.931,1.931,0,0,1-.18.846,1.812,1.812,0,0,1-.529.637,2.474,2.474,0,0,1-.826.4,3.791,3.791,0,0,1-1.086.128Zm1.235-4.7a2.12,2.12,0,0,0-.084-.633,1.32,1.32,0,0,0-.241-.477,1.075,1.075,0,0,0-.4-.3,1.174,1.174,0,0,0-.509-.108,1.064,1.064,0,0,0-.882.413,1.334,1.334,0,0,0-.233.477,2.5,2.5,0,0,0,0,1.263,1.441,1.441,0,0,0,.229.481,1.07,1.07,0,0,0,.377.3,1.286,1.286,0,0,0,1.018,0,1.075,1.075,0,0,0,.4-.3,1.4,1.4,0,0,0,.237-.477,2.261,2.261,0,0,0,.088-.633Zm3.508-3.372a.965.965,0,0,1-.341-.056.864.864,0,0,1-.265-.144.745.745,0,0,1-.164-.225.714.714,0,0,1,0-.573.573.573,0,0,1,.164-.225.693.693,0,0,1,.265-.144.988.988,0,0,1,.341-.052,1.094,1.094,0,0,1,.341.052.712.712,0,0,1,.261.144.622.622,0,0,1,.168.225.714.714,0,0,1,0,.573.688.688,0,0,1-.168.225.8.8,0,0,1-.261.144.989.989,0,0,1-.341.057Zm-.7.742h1.4v5.316h-1.4Zm2.818,0h1.359v.85h.092a1.483,1.483,0,0,1,.581-.71,1.786,1.786,0,0,1,.99-.257,1.711,1.711,0,0,1,1.351.521,2.111,2.111,0,0,1,.465,1.475v3.436h-1.4V73.764a1.3,1.3,0,0,0-.237-.838.921.921,0,0,0-.742-.281,1.187,1.187,0,0,0-.437.08.956.956,0,0,0-.333.233,1.08,1.08,0,0,0-.208.369,1.46,1.46,0,0,0-.072.473v3.067h-1.4V71.535Zm8.539,7.328a4.135,4.135,0,0,1-.966-.108,2.57,2.57,0,0,1-.75-.317,1.715,1.715,0,0,1-.5-.493,1.4,1.4,0,0,1-.22-.637h1.391a.57.57,0,0,0,.333.4,1.57,1.57,0,0,0,.742.148,1.37,1.37,0,0,0,.878-.249.838.838,0,0,0,.313-.7v-.982h-.088a1.519,1.519,0,0,1-.629.641,2.041,2.041,0,0,1-.97.216,2.151,2.151,0,0,1-.894-.188,1.893,1.893,0,0,1-.678-.525,2.4,2.4,0,0,1-.429-.83,3.7,3.7,0,0,1-.148-1.086,3.893,3.893,0,0,1,.148-1.115,2.526,2.526,0,0,1,.433-.85,1.9,1.9,0,0,1,.685-.545,2.162,2.162,0,0,1,.91-.188,2.051,2.051,0,0,1,.517.064,1.815,1.815,0,0,1,.453.188,1.675,1.675,0,0,1,.377.293,1.8,1.8,0,0,1,.269.4h.088v-.85H136v5.3a1.918,1.918,0,0,1-.184.846,1.762,1.762,0,0,1-.525.637,2.474,2.474,0,0,1-.826.4,3.791,3.791,0,0,1-1.086.128Zm1.231-4.7a2.12,2.12,0,0,0-.084-.633,1.336,1.336,0,0,0-.241-.477,1.093,1.093,0,0,0-.381-.3,1.244,1.244,0,0,0-1.014,0,1.07,1.07,0,0,0-.377.3,1.334,1.334,0,0,0-.233.477,2.5,2.5,0,0,0,0,1.263,1.442,1.442,0,0,0,.233.481,1.027,1.027,0,0,0,.373.3,1.3,1.3,0,0,0,1.022,0,1.043,1.043,0,0,0,.381-.3,1.45,1.45,0,0,0,.241-.477,2.29,2.29,0,0,0,.08-.633Zm6.623,2.686V74.288l-2.4-4.41H140.4l1.531,2.911h.088l1.527-2.911h1.576l-2.4,4.41V76.85Zm6.306.12a3.221,3.221,0,0,1-1.1-.188,2.174,2.174,0,0,1-.826-.549,2.328,2.328,0,0,1-.513-.874,3.585,3.585,0,0,1-.18-1.167,3.537,3.537,0,0,1,.18-1.159,2.492,2.492,0,0,1,.521-.874,2.3,2.3,0,0,1,.826-.549,3.228,3.228,0,0,1,2.181,0,2.3,2.3,0,0,1,.826.549,2.431,2.431,0,0,1,.521.874,3.847,3.847,0,0,1,0,2.326,2.328,2.328,0,0,1-.513.874,2.174,2.174,0,0,1-.826.549,3.119,3.119,0,0,1-1.1.191Zm0-1.147a1.01,1.01,0,0,0,.87-.429,2.056,2.056,0,0,0,.309-1.2,2.785,2.785,0,0,0-.08-.686A1.645,1.645,0,0,0,148.4,73a.975.975,0,0,0-.369-.317,1.072,1.072,0,0,0-.5-.12,1.111,1.111,0,0,0-.5.112.936.936,0,0,0-.369.317,1.464,1.464,0,0,0-.229.509,2.6,2.6,0,0,0-.08.686,2.083,2.083,0,0,0,.3,1.2,1.039,1.039,0,0,0,.874.437Zm8.559,1.026h-1.343V76h-.089a1.467,1.467,0,0,1-.565.718,1.751,1.751,0,0,1-.986.253,2.2,2.2,0,0,1-.774-.132,1.572,1.572,0,0,1-.585-.4,1.782,1.782,0,0,1-.373-.617,2.543,2.543,0,0,1-.128-.83V71.524h1.4v3.1c0,.738.325,1.11.978,1.11a1.017,1.017,0,0,0,.8-.309,1.2,1.2,0,0,0,.277-.842V71.524h1.4l-.02,5.328Zm5.408.08a2.228,2.228,0,0,1-.706-.112,1.66,1.66,0,0,1-.549-.325,1.421,1.421,0,0,1-.357-.5,1.613,1.613,0,0,1-.128-.661,1.348,1.348,0,0,1,.529-1.135,2.69,2.69,0,0,1,1.527-.465l1.287-.076v-.433a.612.612,0,0,0-.229-.517,1.062,1.062,0,0,0-.665-.18,1.363,1.363,0,0,0-.629.128.663.663,0,0,0-.333.365h-1.287a1.55,1.55,0,0,1,.216-.661,1.637,1.637,0,0,1,.485-.509,2.5,2.5,0,0,1,.714-.321,3.818,3.818,0,0,1,1.852.012,1.958,1.958,0,0,1,.69.357,1.537,1.537,0,0,1,.429.565,1.9,1.9,0,0,1,.144.762v3.608h-1.363V76.17h-.084a1.432,1.432,0,0,1-.617.569,2,2,0,0,1-.926.192Zm.461-1.054a1.45,1.45,0,0,0,.453-.072,1.113,1.113,0,0,0,.365-.2.988.988,0,0,0,.241-.3.865.865,0,0,0,.084-.377v-.4l-1.074.064c-.6.044-.894.257-.894.641a.552.552,0,0,0,.229.469.976.976,0,0,0,.6.18Zm8.992.974h-1.371l-1.84-6.956h1.518l1.082,4.9h.076l1.271-4.9h1.227l1.291,4.9h.08l1.074-4.9h1.5l-1.848,6.956h-1.363l-1.315-4.6h-.075Zm8.992.12a3.221,3.221,0,0,1-1.1-.188,2.16,2.16,0,0,1-.822-.549,2.421,2.421,0,0,1-.517-.874,3.888,3.888,0,0,1,0-2.326,2.431,2.431,0,0,1,.521-.874,2.32,2.32,0,0,1,.822-.549,3.24,3.24,0,0,1,2.185,0,2.32,2.32,0,0,1,.822.549,2.431,2.431,0,0,1,.521.874,3.888,3.888,0,0,1,0,2.326,2.422,2.422,0,0,1-.517.874,2.16,2.16,0,0,1-.822.549,3.115,3.115,0,0,1-1.1.192Zm0-1.147a1.018,1.018,0,0,0,.87-.429,2.082,2.082,0,0,0,.3-1.2,2.785,2.785,0,0,0-.08-.686A1.4,1.4,0,0,0,180.8,73a.975.975,0,0,0-.369-.317,1.054,1.054,0,0,0-.493-.112,1.138,1.138,0,0,0-.5.112.975.975,0,0,0-.369.317,1.464,1.464,0,0,0-.229.509,2.785,2.785,0,0,0-.08.686,2.052,2.052,0,0,0,.3,1.2,1.027,1.027,0,0,0,.874.429Zm3.756-4.29h1.359v.846h.084a1.084,1.084,0,0,1,.18-.369,1.257,1.257,0,0,1,.3-.3,1.7,1.7,0,0,1,.4-.2,1.6,1.6,0,0,1,.477-.072h.3a1.061,1.061,0,0,1,.249.052v1.275l-.124-.028a1.346,1.346,0,0,0-.168-.032h-.373a1.7,1.7,0,0,0-.525.08,1.137,1.137,0,0,0-.4.241.98.98,0,0,0-.265.377,1.261,1.261,0,0,0-.1.5v2.947h-1.4V71.525Zm4.342-2.033h1.4v7.348h-1.4Zm4.763,7.429a2.206,2.206,0,0,1-.906-.188,1.887,1.887,0,0,1-.682-.549,2.611,2.611,0,0,1-.429-.866,4.491,4.491,0,0,1,0-2.285,2.563,2.563,0,0,1,.433-.862,1.915,1.915,0,0,1,.682-.545,2.117,2.117,0,0,1,.9-.188,1.828,1.828,0,0,1,.958.245,1.536,1.536,0,0,1,.625.69h.084V69.5h1.4v7.348h-1.359v-.834h-.084a1.614,1.614,0,0,1-.269.4,1.75,1.75,0,0,1-.834.469,2.106,2.106,0,0,1-.525.044Zm.477-4.31a1.058,1.058,0,0,0-.882.421,1.519,1.519,0,0,0-.237.493,2.248,2.248,0,0,0-.084.653,2.33,2.33,0,0,0,.084.665,1.519,1.519,0,0,0,.237.493,1.047,1.047,0,0,0,.377.309,1.155,1.155,0,0,0,.505.1,1.2,1.2,0,0,0,.5-.108,1.12,1.12,0,0,0,.4-.309,1.519,1.519,0,0,0,.237-.493,2.693,2.693,0,0,0,0-1.311,1.519,1.519,0,0,0-.237-.493.994.994,0,0,0-.381-.317,1.176,1.176,0,0,0-.52-.1Zm8.952,4.35a3.221,3.221,0,0,1-1.1-.188,2.174,2.174,0,0,1-.826-.549,2.422,2.422,0,0,1-.517-.874,3.7,3.7,0,0,1-.176-1.167,3.537,3.537,0,0,1,.18-1.159,2.431,2.431,0,0,1,.521-.874,2.32,2.32,0,0,1,.822-.549,3.24,3.24,0,0,1,2.185,0,2.3,2.3,0,0,1,.826.549,2.43,2.43,0,0,1,.517.874,3.362,3.362,0,0,1,.184,1.159,3.585,3.585,0,0,1-.18,1.167,2.393,2.393,0,0,1-.517.874,2.16,2.16,0,0,1-.822.549,3.113,3.113,0,0,1-1.1.193Zm0-1.147a1.018,1.018,0,0,0,.87-.429,2.052,2.052,0,0,0,.3-1.2,2.786,2.786,0,0,0-.08-.686,1.4,1.4,0,0,0-.233-.509,1,1,0,0,0-.365-.317,1.174,1.174,0,0,0-1,0,.975.975,0,0,0-.369.317,1.464,1.464,0,0,0-.229.509,2.785,2.785,0,0,0-.08.686,2.082,2.082,0,0,0,.3,1.2,1.028,1.028,0,0,0,.885.434Zm4.169-3.135h-.858v-1.1h.858v-.521a1.356,1.356,0,0,1,.477-1.163,2.34,2.34,0,0,1,1.411-.357,2.6,2.6,0,0,1,.353,0l.3.036v1.01a1.558,1.558,0,0,0-.192-.028h-.269a.84.84,0,0,0-.541.148.617.617,0,0,0-.172.481v.4H208.9v1.1h-1.1v4.153h-1.4V72.684Zm7.4,4.161v-5.7h-2.089V69.9h5.613v1.243h-2.048v5.713Zm5.356.08a2.228,2.228,0,0,1-.706-.112,1.617,1.617,0,0,1-.549-.325,1.49,1.49,0,0,1-.361-.5,1.684,1.684,0,0,1-.124-.661,1.348,1.348,0,0,1,.529-1.135,2.69,2.69,0,0,1,1.527-.465l1.287-.076V73.22a.612.612,0,0,0-.229-.517,1.072,1.072,0,0,0-.669-.18,1.347,1.347,0,0,0-.625.128.646.646,0,0,0-.333.365h-1.291a1.545,1.545,0,0,1,.212-.661,1.682,1.682,0,0,1,.485-.509,2.454,2.454,0,0,1,.718-.321,3.818,3.818,0,0,1,1.852.012,1.958,1.958,0,0,1,.69.357,1.538,1.538,0,0,1,.429.565,1.9,1.9,0,0,1,.144.762v3.608h-1.359v-.661H220.7a1.383,1.383,0,0,1-.613.569,2.057,2.057,0,0,1-.926.192Zm.461-1.054a1.45,1.45,0,0,0,.453-.072,1.05,1.05,0,0,0,.361-.2.879.879,0,0,0,.241-.3.822.822,0,0,0,.088-.377v-.4l-1.074.064q-.9.066-.9.641a.548.548,0,0,0,.233.469.968.968,0,0,0,.6.18Zm3.953-6.374h1.4v7.348h-1.4Zm7.6,5.833a1.823,1.823,0,0,1-.285.678,1.913,1.913,0,0,1-.521.513,2.283,2.283,0,0,1-.726.325,3.218,3.218,0,0,1-.9.116,3.12,3.12,0,0,1-1.082-.188,2.094,2.094,0,0,1-.8-.537,2.278,2.278,0,0,1-.517-.874,3.974,3.974,0,0,1,0-2.326,2.514,2.514,0,0,1,.509-.882,2.278,2.278,0,0,1,.8-.557,3.036,3.036,0,0,1,2.113,0,2.151,2.151,0,0,1,.8.525,2.325,2.325,0,0,1,.489.846,3.478,3.478,0,0,1,.168,1.127v.433h-3.648V74.6a1.636,1.636,0,0,0,.092.533,1.224,1.224,0,0,0,.249.4,1.018,1.018,0,0,0,.377.257,1.332,1.332,0,0,0,.5.088,1.535,1.535,0,0,0,.7-.14.811.811,0,0,0,.4-.4l1.279-.008Zm-2.441-2.842a1.251,1.251,0,0,0-.449.08,1.066,1.066,0,0,0-.6.593,1.354,1.354,0,0,0-.112.469h2.265a1.256,1.256,0,0,0-.317-.838,1.042,1.042,0,0,0-.79-.3Zm3.632-.958h1.355v.85h.088a1.483,1.483,0,0,1,.581-.71,1.786,1.786,0,0,1,.99-.257,1.711,1.711,0,0,1,1.351.521,2.111,2.111,0,0,1,.465,1.475v3.436h-1.4V73.76a1.249,1.249,0,0,0-.237-.838.921.921,0,0,0-.742-.281,1.184,1.184,0,0,0-.437.08.954.954,0,0,0-.329.233,1.025,1.025,0,0,0-.212.369,1.46,1.46,0,0,0-.072.473v3.067h-1.4V71.531Zm8-1.263v1.315h1.1v1.1h-1.1v2.4a.689.689,0,0,0,.164.509.738.738,0,0,0,.525.164h.413v1.07c-.084,0-.192.032-.313.044s-.257.02-.4.02a3.858,3.858,0,0,1-.83-.084,1.316,1.316,0,0,1-.557-.257.955.955,0,0,1-.317-.453,1.954,1.954,0,0,1-.1-.661V72.715h-.818v-1.1h.83V70.3ZM93.61,57.5c-1.058-1.042-1.359-2.189-.353-3.339l1.6-1.98c1.006-1.151,2.061-1.411,3.207-.4a12.744,12.744,0,0,0,8.1,3.5c3.071,0,4.983-1.255,4.983-3.131,0-2.662-2.971-2.975-6.9-4.225C99.669,46.463,94.084,43.8,94.084,37.438c0-5.949,5.083-10.123,12.48-10.123a16.307,16.307,0,0,1,10.917,3.861c1.159.938,1.559,2.085.553,3.287l-1.559,1.928a2.039,2.039,0,0,1-3.207.4,10.183,10.183,0,0,0-6.543-2.658c-2.514,0-4.225,1.094-4.225,2.806,0,2.141,2.466,3.027,5.031,3.913,5.585,1.776,12.075,3.608,12.075,11.225,0,6.731-5.837,10.383-12.981,10.383-5.208,0-10.055-1.876-13.021-4.955Zm27.919-12.624c0-10.071,7.745-17.583,18.008-17.583s18.012,7.513,18.012,17.583-7.8,17.583-18.012,17.583-18.009-7.516-18.009-17.583Zm27.57,0a9.564,9.564,0,0,0-19.119-.587c-.006.2-.006.391,0,.587a9.564,9.564,0,0,0,19.119.587c.006-.2.006-.391,0-.587M160.44,59.538V30.272A2.066,2.066,0,0,1,162.2,27.94a2.1,2.1,0,0,1,.455-.013h3.825a2.042,2.042,0,0,1,2.213,2.345V54.844H180.9a2.026,2.026,0,0,1,2.222,1.809,2.062,2.062,0,0,1-.009.484v2.407a2.053,2.053,0,0,1-1.78,2.292,2.09,2.09,0,0,1-.433.008H162.653a2.058,2.058,0,0,1-2.213-2.3Zm48.525-14.661c0-10.071,7.749-17.583,18.012-17.583s18.012,7.513,18.012,17.583-7.8,17.583-18.012,17.583-18.012-7.516-18.012-17.583m27.57,0a9.562,9.562,0,0,0-19.115-.587c-.006.2-.006.391,0,.587a9.558,9.558,0,1,0,19.107.587c.006-.2.006-.391,0-.587ZM175.241,34.9a2.066,2.066,0,0,1-2.269-1.841,2.134,2.134,0,0,1,0-.459V29.586a2.04,2.04,0,0,1,2.265-2.293h5.212a7.087,7.087,0,0,1,4.378,1.2,10.632,10.632,0,0,1,3.267,4.9l6.29,16.124,10.981-26.712a3.2,3.2,0,0,1,3.119-2.3h3.724c1.459,0,2.566.782,1.86,2.3L197.491,59.85c-.7,1.568-1.459,2.245-2.866,2.245h-.505c-1.355,0-2.113-.678-2.866-2.245L180.485,36.057c-.249-.625-.5-.99-.9-1.094a.989.989,0,0,0-.357-.064Z" fill="#fff"/>
    </g>
  </g>
</svg>
