<svg id="Group_60" data-name="Group 60" xmlns="http://www.w3.org/2000/svg" xmlns:xlink="http://www.w3.org/1999/xlink" width="19.761" height="16.786" viewBox="0 0 19.761 16.786">
  <defs>
    <clipPath id="clip-path">
      <rect id="Rectangle_56" data-name="Rectangle 56" width="19.761" height="16.786" fill="none"/>
    </clipPath>
  </defs>
  <g id="Group_58" data-name="Group 58" clip-path="url(#clip-path)">
    <path id="Path_58" data-name="Path 58" d="M8.433,0A9.136,9.136,0,0,1,14.7,2.337,5.26,5.26,0,0,1,14.33,10.7a9.578,9.578,0,0,1-6.9,1.959.816.816,0,0,0-.832.371,4.33,4.33,0,0,1-3.69,1.989c-.669-.019-.767-.168-.559-.822.23-.722.465-1.443.682-2.169a.886.886,0,0,0-.448-1.093A5.484,5.484,0,0,1,0,6.5,5.505,5.505,0,0,1,2.535,1.788,9.685,9.685,0,0,1,8.433,0M8.32,5.2A1.333,1.333,0,0,0,6.987,6.519a1.318,1.318,0,0,0,2.634-.035A1.331,1.331,0,0,0,8.32,5.2M12.4,7.793a1.3,1.3,0,0,0,1.291-1.285A1.318,1.318,0,1,0,12.4,7.793m-8.2,0A1.313,1.313,0,0,0,5.556,6.508a1.318,1.318,0,0,0-2.636-.013A1.3,1.3,0,0,0,4.2,7.792" transform="translate(0)" fill="#fff"/>
    <path id="Path_59" data-name="Path 59" d="M69.562,56.838c5.007-.392,8.5-3.374,8.608-7.245a4.085,4.085,0,0,1,1.408,6.266,5.944,5.944,0,0,1-1.107,1.036.7.7,0,0,0-.338.853c.164.546.326,1.093.525,1.626.183.49.08.711-.476.707a3.374,3.374,0,0,1-2.706-1.422.908.908,0,0,0-.941-.419,7.369,7.369,0,0,1-4.974-1.4" transform="translate(-60.728 -43.295)" fill="#fff"/>
  </g>
</svg>
