<svg id="Group_5" data-name="Group 5" xmlns="http://www.w3.org/2000/svg" xmlns:xlink="http://www.w3.org/1999/xlink" width="21.874" height="19.118" viewBox="0 0 21.874 19.118">
  <defs>
    <clipPath id="clip-path">
      <rect id="Rectangle_6" data-name="Rectangle 6" width="21.874" height="19.118" fill="none"/>
    </clipPath>
  </defs>
  <g id="Group_4" data-name="Group 4" clip-path="url(#clip-path)">
    <path id="Path_11" data-name="Path 11" d="M9.223,10.68c-.083,0-.143.01-.2.01-1.78,0-3.561.005-5.341,0A3.617,3.617,0,0,1,.061,7.706,3.658,3.658,0,0,1,0,7.064C0,6.06,0,5.055,0,4.051A1.28,1.28,0,0,1,1.372,2.675c1.67,0,3.339,0,5.009,0a2.462,2.462,0,0,1,.259,0c.173.018.24-.042.235-.226-.012-.437,0-.875,0-1.312A1.036,1.036,0,0,1,7.994.008C9.947.007,11.9.019,13.852,0a1.1,1.1,0,0,1,1.169,1.161c0,.413,0,.826,0,1.238,0,.273,0,.274.268.274,1.67,0,3.339,0,5.009,0a1.511,1.511,0,0,1,1.193.48,1.4,1.4,0,0,1,.38.974c0,1.01,0,2.021,0,3.031a3.6,3.6,0,0,1-3.248,3.5c-.221.019-.443.028-.664.029-1.694,0-3.388,0-5.083.006-.178,0-.218-.058-.215-.22.007-.345.011-.691-.01-1.034a1.14,1.14,0,0,0-1.091-1.119,9.065,9.065,0,0,0-1.292.007A1.145,1.145,0,0,0,9.224,9.473c0,.333,0,.665,0,1v.209m1.731-8.007c.782,0,1.563,0,2.345,0,.163,0,.235-.041.225-.217a6.361,6.361,0,0,1,0-.72c.011-.184-.047-.245-.237-.243-.843.009-1.686,0-2.53,0-.732,0-1.465,0-2.2,0-.139,0-.2.037-.191.188a7.317,7.317,0,0,1,0,.775c-.011.179.061.216.223.215.788-.006,1.576,0,2.364,0" transform="translate(0 0)" fill="#fff"/>
    <path id="Path_12" data-name="Path 12" d="M21.9,255.245v.252q0,3.9,0,7.8a1.5,1.5,0,0,1-1.589,1.585H1.622a1.511,1.511,0,0,1-1.6-1.6q0-3.918,0-7.836V255.2c.083.1.134.164.183.227a3.741,3.741,0,0,0,2.65,1.582c.716.067,1.438.085,2.157.087,1.306,0,2.611-.022,3.917-.034h.315c0,.294,0,.563,0,.833a1.182,1.182,0,0,0,1.289,1.284c.32,0,.641,0,.961,0a1.164,1.164,0,0,0,1.177-1.114,6.768,6.768,0,0,0,.01-.757c-.008-.181.04-.242.234-.241,1.632.006,3.265.013,4.9-.011a8.209,8.209,0,0,0,1.686-.166,3.79,3.79,0,0,0,2.394-1.64" transform="translate(-0.024 -245.763)" fill="#fff"/>
    <path id="Path_13" data-name="Path 13" d="M274.024,249.561c0,.43,0,.861,0,1.291,0,.286-.117.405-.4.408q-.47,0-.941,0c-.275,0-.4-.121-.4-.393q0-1.31,0-2.62a.342.342,0,0,1,.384-.391q.489-.01.978,0c.262.006.379.132.38.394,0,.437,0,.873,0,1.31" transform="translate(-262.214 -238.69)" fill="#fff"/>
  </g>
</svg>
