<svg id="Group_78" data-name="Group 78" xmlns="http://www.w3.org/2000/svg" xmlns:xlink="http://www.w3.org/1999/xlink" width="19.795" height="22.296" viewBox="0 0 19.795 22.296">
  <defs>
    <clipPath id="clip-path">
      <rect id="Rectangle_60" data-name="Rectangle 60" width="19.795" height="22.296" fill="none"/>
    </clipPath>
  </defs>
  <g id="Group_77" data-name="Group 77" clip-path="url(#clip-path)">
    <path id="Path_60" data-name="Path 60" d="M44.176,5.7A5.675,5.675,0,1,1,38.526,0a5.675,5.675,0,0,1,5.651,5.7" transform="translate(-28.798 0)" fill="#fff"/>
    <path id="Path_61" data-name="Path 61" d="M10.524,95.433h0a4.857,4.857,0,0,1,6.665-4.507,10.059,10.059,0,0,0-2.926-2.483c-.151-.088-.267-.157-.46-.016a6.529,6.529,0,0,1-8.184.006.308.308,0,0,0-.4-.032A10.224,10.224,0,0,0,.009,96.635c-.029.324.027.4.351.4q4.674-.01,9.348-.007l0,0H10.79a4.849,4.849,0,0,1-.267-1.588" transform="translate(-0.002 -77.501)" fill="#fff"/>
    <path id="Path_62" data-name="Path 62" d="M96.554,112.7a4.232,4.232,0,1,0,4.232,4.232,4.232,4.232,0,0,0-4.232-4.232m2.662,2.747q-1.438,1.99-2.878,3.98a.61.61,0,0,1-.946.074l-1.8-1.8a.581.581,0,1,1,.821-.823q.337.334.671.671l.652.652.034.032.36-.5,1.941-2.684.2-.278a.581.581,0,0,1,1.048.251.562.562,0,0,1-.1.426" transform="translate(-80.991 -98.868)" fill="#fff"/>
  </g>
</svg>
