<svg xmlns="http://www.w3.org/2000/svg" xmlns:xlink="http://www.w3.org/1999/xlink" width="19.558" height="19.663" viewBox="0 0 19.558 19.663">
  <defs>
    <clipPath id="clip-path">
      <rect id="Rectangle_5" data-name="Rectangle 5" width="19.558" height="19.663" fill="none"/>
    </clipPath>
  </defs>
  <g id="Group_76" data-name="Group 76" transform="translate(-27 -400.169)">
    <g id="Group_75" data-name="Group 75">
      <g id="Group_2" data-name="Group 2" transform="translate(27 400.169)">
        <g id="Group_1" data-name="Group 1" clip-path="url(#clip-path)">
          <path id="Path_9" data-name="Path 9" d="M9.771,153c-3.137,0-6.274,0-9.411.007-.326,0-.382-.074-.353-.4a10.293,10.293,0,0,1,5.248-8.29.31.31,0,0,1,.4.032,6.573,6.573,0,0,0,8.239-.006c.194-.142.311-.072.463.016a10.131,10.131,0,0,1,4.978,6.87c.1.465.128.947.212,1.416.051.287-.034.358-.325.357-3.15-.011-6.3-.007-9.449-.007" transform="translate(0 -133.343)" fill="#fff"/>
          <path id="Path_10" data-name="Path 10" d="M65.024,5.743A5.713,5.713,0,1,1,59.335,0a5.729,5.729,0,0,1,5.689,5.744" transform="translate(-49.542 0)" fill="#fff"/>
        </g>
      </g>
    </g>
  </g>
</svg>
